# AST/ASF file generated using VICON BodyLanguage
# -----------------------------------------------
:version 1.10
:name VICON
:units
  mass 1.0
  length 0.45
  angle deg
:documentation
   .ast/.asf automatically generated from VICON data using
   VICON BodyBuilder and BodyLanguage model FoxedUp or BRILLIANT.MOD
:root
   order TX TY TZ RX RY RZ
   axis XYZ
   position 0 0 0  
   orientation 0 0 0 
:bonedata
  begin
     id 1 
     name lhipjoint
     direction 0.710188 -0.616876 0.339259 
     length 2.5669 
     axis 0 0 0  XYZ
  end
  begin
     id 2 
     name lfemur
     direction 0.34202 -0.939693 0  
     length 7.12796  
     axis 0 0 20  XYZ
    dof rx ry rz
    limits (-160.0 20.0)
           (-70.0 70.0)
           (-60.0 70.0)
  end
  begin
     id 3 
     name ltibia
     direction 0.34202 -0.939693 0   
     length 7.58108   
     axis 0 0 20   XYZ
    dof rx
    limits (-10.0 170.0)
  end
  begin
     id 4 
     name lfoot
     direction 0.0669471 -0.183936 0.980656   
     length 2.17365   
     axis -90 7.62852e-016 20   XYZ
    dof rx rz
    limits (-45.0 90.0)
           (-70.0 20.0)
  end
  begin
     id 5 
     name ltoes
     direction 1.53508e-011 -4.21705e-011 1   
     length 1.09427   
     axis -90 7.62852e-016 20   XYZ
    dof rx
    limits (-90.0 20.0)
  end
  begin
     id 6 
     name rhipjoint
     direction -0.700191 -0.625589 0.34405   
     length 2.53115  
     axis 0 0 0  XYZ 
  end
  begin
     id 7 
     name rfemur
     direction -0.34202 -0.939693 0   
     length 7.33006   
     axis 0 0 -20   XYZ
    dof rx ry rz
    limits (-160.0 20.0)
           (-70.0 70.0)
           (-70.0 60.0)
  end
  begin
     id 8 
     name rtibia
     direction -0.34202 -0.939693 0   
     length 7.64926   
     axis 0 0 -20   XYZ
    dof rx
    limits (-10.0 170.0)
 end
 begin
     id 9 
     name rfoot
     direction -0.0688927 -0.189281 0.979503   
     length 2.20493  
     axis -90 -7.62852e-016 -20   XYZ
    dof rx rz
    limits (-45.0 90.0)
           (-20.0 70.0)
  end
  begin
     id 10 
     name rtoes
     direction -1.53567e-011 -4.21933e-011 1   
     length 1.10919   
     axis -90 -7.62852e-016 -20   XYZ
    dof rx
    limits (-90.0 20.0)
  end
  begin
     id 11 
     name lowerback
     direction -0.0167868 0.989873 -0.140959   
     length 2.14596   
     axis 0 0 0   XYZ
    dof rx ry rz
    limits (-20.0 45.0)
           (-30.0 30.0)
           (-30.0 30.0)
  end
  begin
     id 12 
     name upperback
     direction 0.0129109 0.998033 0.0613525   
     length 2.10457   
     axis 0 0 0   XYZ
    dof rx ry rz
    limits (-20.0 45.0)
           (-30.0 30.0)
           (-30.0 30.0)
  end
  begin
     id 13 
     name thorax
     direction 0.0177047 0.991119 0.131797   
     length 2.17652   
     axis 0 0 0   XYZ
    dof rx ry rz
    limits (-20.0 45.0)
           (-30.0 30.0)
           (-30.0 30.0)
  end
  begin
     id 14 
     name lowerneck
     direction -0.0336893 0.997548 0.0613464   
     length 1.8912   
     axis 0 0 0   XYZ
    dof rx ry rz
    limits (-20.0 45.0)
           (-30.0 30.0)
           (-30.0 30.0)
  end
  begin
     id 15 
     name upperneck
     direction 0.0435909 0.997179 -0.0611028   
     length 1.8829   
     axis 0 0 0   XYZ
    dof rx ry rz
    limits (-20.0 45.0)
           (-30.0 30.0)
           (-30.0 30.0)
  end
  begin
     id 16
     name head
     direction 0.0175076 0.999444 -0.0283782  
     length 1.93197  
     axis 0 0 0   XYZ
    dof rx ry rz
    limits (-20.0 45.0)
           (-30.0 30.0)
           (-30.0 30.0)
  end
  begin
     id 17 
     name lclavicle
     direction 0.919164 0.389875 0.0559876  
     length 3.60004  
     axis 0 0 0   XYZ
    dof ry rz
    limits (-20.0 10.0)
           (0.0 20.0)
  end
  begin
     id 18 
     name lhumerus
     direction 1 -4.48958e-011 6.89191e-027   
     length 5.43301   
     axis 180 -30 -90   XYZ
    dof rx ry rz
    limits (-60.0 90.0)
           (-90.0 90.0)
           (-90.0 90.0)
  end
  begin
     id 19
     name lradius
     direction 1 -4.4897e-011 3.24727e-027   
     length 3.15936   
     axis 180 -30 -90   XYZ
    dof rx
    limits (-10.0 170.0)
  end
  begin
     id 20
     name lwrist
     direction 1 -4.4897e-011 9.00228e-027   
     length 1.57968   
     axis -6.29373e-015 90 90   XYZ
    dof ry
    limits (-180.0 0.0)
 end
  begin
     id 21 
     name lhand
     direction 1 -4.48968e-011 1.80042e-026   
     length 0.712827   
     axis -1.14882e-014 90 90   XYZ
    dof rx rz
    limits (-90.0 90.0)
           (-45.0 45.0)
  end
  begin
     id 22 
     name lfingers
     direction 1 -4.49019e-011 3.60267e-026   
     length 0.574699   
     axis -2.29769e-014 90 90   XYZ
    dof rx
    limits (0.0 90.0)
  end
  begin
     id 23
     name lthumb
     direction 0.707107 -6.3498e-011 0.707107   
     length 0.825157   
     axis -90 45 5.37419e-014   XYZ
    dof rx rz
    limits (-45.0 45.0)
           (-45.0 45.0)
  end
  begin
     id 24 
     name rclavicle
     direction -0.890334 0.455305 -0.00132111   
     length 3.51494  
     axis 0 0 0   XYZ 
    dof ry rz
    limits (-10.0 20.0)
           (-20.0 0.0)
  end
  begin
     id 25 
     name rhumerus
     direction -1 -4.48967e-011 5.07175e-028  
     length 5.34194   
     axis 180 30 90   XYZ
    dof rx ry rz
    limits (-90.0 60.0)
           (-90.0 90.0)
           (-90.0 90.0)
  end
  begin
     id 26 
     name rradius
     direction -1 -4.48955e-011 3.30467e-027   
     length 3.19351   
     axis 180 30 90   XYZ
    dof rx
    limits (-10.0 170.0)
  end
  begin
     id 27 
     name rwrist
     direction -1 -4.48968e-011 9.00208e-027   
     length 1.59676   
     axis -6.29373e-015 -90 -90   XYZ
    dof ry
    limits (-180.0 0.0)
  end
  begin
     id 28
     name rhand
     direction -1 -4.49e-011 1.80099e-026   
     length 0.743862   
     axis -1.14882e-014 -90 -90   XYZ
    dof rx rz
    limits (-90.0 90.0)
           (-45.0 45.0)
  end
  begin
     id 29
     name rfingers
     direction -1 -4.49009e-011 3.6023e-026   
     length 0.599721   
     axis -2.29769e-014 -90 -90   XYZ
    dof rx
    limits (0.0 90.0)
  end
  begin
     id 30
     name rthumb
     direction -0.707107 -6.35025e-011 0.707107   
     length 0.861083   
     axis -90 -45 -5.37419e-014   XYZ
    dof rx rz
    limits (-45.0 45.0)
           (-45.0 45.0)
  end
:hierarchy
  begin
    root lhipjoint rhipjoint lowerback
    lhipjoint lfemur
    lfemur ltibia
    ltibia lfoot
    lfoot ltoes
    rhipjoint rfemur
    rfemur rtibia
    rtibia rfoot
    rfoot rtoes
    lowerback upperback
    upperback thorax
    thorax lowerneck lclavicle rclavicle
    lowerneck upperneck
    upperneck head
    lclavicle lhumerus
    lhumerus lradius
    lradius lwrist
    lwrist lhand lthumb
    lhand lfingers
    rclavicle rhumerus
    rhumerus rradius
    rradius rwrist
    rwrist rhand rthumb
    rhand rfingers
  end

#!OML:ASF H:\Martial Arts Walks\Project 1\Capture day 1\Session 1\male.ASF
:FULLY-SPECIFIED
:DEGREES
1117
root -2.32996 13.6949 30.8471 13.2701 -20.1071 -3.79103
lowerback 13.4989 4.47121 -3.47298
upperback -1.79255 5.42964 0.534269
thorax -9.90534 2.80837 1.33005
lowerneck -3.41513 -0.882232 -2.70161
upperneck 1.83331 -1.16376 4.04522
head 1.19655 -0.538674 1.70495
rclavicle -2.21148e-015 1.95803e-014
rhumerus -24.8798 26.6421 -78.5935
rradius 59.6334
rwrist 9.78934
rhand -6.00706 -45.1327
rfingers 7.12502
rthumb 19.8256 -74.1415
lclavicle -2.21148e-015 1.95803e-014
lhumerus -13.8156 -7.19728 77.9878
lradius 26.2634
lwrist -18.2635
lhand -20.9373 21.5014
lfingers 7.12502
lthumb 5.43489 51.4117
rfemur -4.73244 2.05724 6.45243
rtibia 69.568
rfoot 4.16784 1.36631
rtoes -19.6982
lfemur -61.1032 22.5274 -22.0513
ltibia 83.2482
lfoot -25.9097 24.8731
ltoes 6.91524
1118
root -2.3277 13.7115 30.9789 12.7902 -19.9173 -2.8986
lowerback 13.6564 4.43984 -4.29029
upperback -1.6422 5.21637 0.273805
thorax -9.87072 2.73854 1.54915
lowerneck -3.49973 -0.879594 -2.81466
upperneck 1.76521 -1.15835 4.29078
head 1.19392 -0.532541 1.80451
rclavicle 4.03036e-014 1.2424e-014
rhumerus -24.6832 26.6288 -78.904
rradius 59.372
rwrist 9.77829
rhand -6.03126 -44.9657
rfingers 7.12502
rthumb 19.8023 -73.977
lclavicle 4.03036e-014 1.2424e-014
lhumerus -13.7158 -7.6848 77.8436
lradius 26.4895
lwrist -18.0687
lhand -19.9295 21.5879
lfingers 7.12502
lthumb 6.40785 51.471
rfemur -7.87257 1.4738 6.3094
rtibia 75.2613
rfoot 0.664864 4.49809
rtoes -20.9046
lfemur -59.8956 21.7908 -22.7074
ltibia 82.7721
lfoot -26.609 25.0555
ltoes 7.12869
1119
root -2.32386 13.722 31.0965 12.1629 -19.667 -1.95124
lowerback 14.158 4.39124 -5.15755
upperback -1.58066 4.94874 0.0290133
thorax -10.1314 2.64826 1.79861
lowerneck -3.24532 -0.917756 -2.76919
upperneck 1.56043 -1.20882 4.23128
head 1.08536 -0.56208 1.77487
rclavicle -5.38209e-014 1.19271e-015
rhumerus -24.8338 26.7494 -79.3149
rradius 59.3968
rwrist 9.77444
rhand -6.14237 -44.8304
rfingers 7.12502
rthumb 19.6955 -73.8526
lclavicle -5.38209e-014 1.19271e-015
lhumerus -13.87 -8.32021 77.7248
lradius 26.8115
lwrist -17.7235
lhand -20.1812 21.1622
lfingers 7.12502
lthumb 6.16486 51.0525
rfemur -10.9769 0.704894 6.25736
rtibia 80.752
rfoot -1.80931 5.68575
rtoes -21.5017
lfemur -58.5751 20.8778 -23.3418
ltibia 82.298
lfoot -26.743 25.5155
ltoes 6.29508
1120
root -2.32362 13.7366 31.2183 11.3787 -19.5596 -0.887942
lowerback 14.7914 4.40116 -6.18427
upperback -1.41145 4.70496 -0.270246
thorax -10.3549 2.57422 2.07112
lowerneck -3.42 -0.895039 -2.76694
upperneck 1.55075 -1.17624 4.27942
head 1.11202 -0.543308 1.79079
rclavicle -1.45113e-014 1.27222e-014
rhumerus -24.7879 26.8079 -79.7313
rradius 59.4099
rwrist 9.8685
rhand -5.89648 -44.7929
rfingers 7.12502
rthumb 19.9319 -73.7907
lclavicle -1.45113e-014 1.27222e-014
lhumerus -13.887 -9.05698 77.5086
lradius 27.1819
lwrist -17.4317
lhand -19.9033 21.3979
lfingers 7.12502
lthumb 6.43313 51.2802
rfemur -14.2107 -0.250559 6.19373
rtibia 85.9833
rfoot -3.48323 5.57599
rtoes -23.1146
lfemur -57.0744 20.1004 -24.0938
ltibia 81.7303
lfoot -25.5949 26.6724
ltoes 3.24607
1121
root -2.32457 13.7565 31.352 10.5377 -19.4863 0.142485
lowerback 15.4145 4.43187 -7.13748
upperback -1.22085 4.48691 -0.588283
thorax -10.5367 2.50714 2.27974
lowerneck -3.47211 -0.901887 -2.85385
upperneck 1.43033 -1.1818 4.47136
head 1.08658 -0.544041 1.86802
rclavicle -3.23522e-014 -2.56432e-014
rhumerus -24.7208 26.9407 -80.1864
rradius 59.39
rwrist 9.9328
rhand -5.59841 -44.6401
rfingers 7.12502
rthumb 20.2184 -73.6079
lclavicle -3.23522e-014 -2.56432e-014
lhumerus -14.045 -9.85198 77.2402
lradius 27.8052
lwrist -17.1459
lhand -19.7493 21.5592
lfingers 7.12502
lthumb 6.58184 51.4369
rfemur -17.4212 -1.34013 6.31869
rtibia 90.8272
rfoot -4.83436 4.18443
rtoes -23.3978
lfemur -55.4672 19.3643 -24.8125
ltibia 81.141
lfoot -26.9545 26.5687
ltoes 5.05773
1122
root -2.32623 13.7758 31.4914 9.58796 -19.4744 1.35673
lowerback 15.9778 4.47231 -8.2401
upperback -0.946115 4.2437 -0.947687
thorax -10.5899 2.42996 2.54217
lowerneck -4.56629 -1.13512 -2.27757
upperneck 2.1294 -1.50567 3.81345
head 1.49645 -0.69701 1.54873
rclavicle -9.29318e-015 5.96354e-016
rhumerus -24.5423 27.1323 -80.6109
rradius 59.3851
rwrist 10.0403
rhand -5.38847 -44.5
rfingers 7.12502
rthumb 20.4201 -73.4462
lclavicle -9.29318e-015 5.96354e-016
lhumerus -14.1191 -10.651 76.927
lradius 28.4205
lwrist -16.6444
lhand -19.5972 21.8436
lfingers 7.12502
lthumb 6.72863 51.7167
rfemur -20.6757 -2.55061 6.40556
rtibia 95.2621
rfoot -6.28188 1.82699
rtoes -23.2127
lfemur -53.6696 18.6599 -25.7358
ltibia 80.4816
lfoot -27.1827 27.1594
ltoes 5.00131
1123
root -2.32803 13.7877 31.6191 8.57037 -19.4649 2.50933
lowerback 16.8318 4.49053 -9.39357
upperback -0.786897 3.91291 -1.2569
thorax -10.9291 2.32568 2.89017
lowerneck -3.57862 -0.822062 -2.87391
upperneck 1.194 -1.06621 4.51731
head 1.02649 -0.485979 1.88791
rclavicle 3.73715e-014 -2.18663e-015
rhumerus -24.5434 27.6179 -81.1941
rradius 59.3798
rwrist 10.1202
rhand -5.00607 -44.4171
rfingers 7.12502
rthumb 20.7876 -73.3236
lclavicle 3.73715e-014 -2.18663e-015
lhumerus -14.5696 -11.2117 76.5315
lradius 29.236
lwrist -16.2277
lhand -20.0335 21.6289
lfingers 7.12502
lthumb 6.30752 51.515
rfemur -24.1562 -3.78365 6.83558
rtibia 99.3007
rfoot -7.87872 -1.34755
rtoes -22.639
lfemur -51.903 18.0525 -26.6093
ltibia 79.8494
lfoot -27.5191 27.657
ltoes 5.06226
